<svg xmlns="http://www.w3.org/2000/svg" width="48" height="45.29" viewBox="0 0 48 45.29">
  <defs>
    <style>
      .cls-1 {
        fill: #0b74ba;
      }

      .cls-2 {
        fill: #fff;
      }
    </style>
  </defs>
  <title>Asset 16</title>
  <g id="Layer_2" data-name="Layer 2">
    <g id="Layer_1-2" data-name="Layer 1">
      <g>
        <path class="cls-1" d="M47.73,0H2.61V45.29H47.73V30.34a1.71,1.71,0,0,0,.27-1,1.54,1.54,0,0,0-.27-1Z"/>
        <path class="cls-2" d="M6.67,19.6l-.86-2.12L4.94,19.6Zm19.13-.84a1.25,1.25,0,0,1-.63.1H23.63V17.69h1.56a1.25,1.25,0,0,1,.6.09.48.48,0,0,1,.27.47.57.57,0,0,1-.26.51m11,.84-.88-2.12L35,19.6ZM16.3,21.89H15V17.74l-1.83,4.15H12L10.2,17.73v4.16H7.62L7.13,20.7H4.49L4,21.89H2.62l2.27-5.31H6.78l2.15,5v-5H11l1.66,3.6,1.53-3.6H16.3Zm5.18,0H17.24V16.58h4.24v1.11h-3v.95h2.89v1.09H18.52v1.06h3Zm6-3.88a1.5,1.5,0,0,1-.89,1.41,1.56,1.56,0,0,1,.62.45,1.51,1.51,0,0,1,.21,1v1.05H26.12v-.67a1.52,1.52,0,0,0-.21-1C25.73,20,25.45,20,25,20H23.63v1.93H22.36V16.58h2.92a3,3,0,0,1,1.54.26A1.23,1.23,0,0,1,27.46,18m2,3.88h-1.3V16.58h1.3Zm15,0H42.7l-2.4-4v4H37.72l-.5-1.19H34.58l-.47,1.19H32.62a2.62,2.62,0,0,1-1.83-.59,2.66,2.66,0,0,1-.68-2,2.83,2.83,0,0,1,.68-2.07,2.59,2.59,0,0,1,1.93-.62h1.22v1.13H32.75a1.24,1.24,0,0,0-1,.32,1.8,1.8,0,0,0-.36,1.2,1.83,1.83,0,0,0,.35,1.25,1.21,1.21,0,0,0,.88.27h.57L35,16.58h1.9l2.15,5v-5H41l2.23,3.69V16.58h1.3Zm-41.89,1H4.77l.49-1.18h1.1l.48,1.18h4.27V22l.38.9H13.7l.38-.91v.91h10.6V21h.21c.14,0,.18,0,.18.26v1.68h5.48v-.45a4.34,4.34,0,0,0,2,.45h2.3l.5-1.18h1.09L37,22.93H41.4V21.81l.67,1.12h3.56v-7.4H42.1v.87l-.49-.87H38v.87l-.46-.87H32.66a4.37,4.37,0,0,0-2.12.43v-.43H27.18V16a2.11,2.11,0,0,0-1.44-.43H13.43l-.83,1.91-.84-1.91H7.88v.87l-.43-.87H4.14L2.61,19Z"/>
        <path class="cls-2" d="M47.73,26.84H45.42a.86.86,0,0,0-.52.1.45.45,0,0,0,.1.78,2,2,0,0,0,.49.06h.68a2,2,0,0,1,1.44.43.71.71,0,0,1,.12.13Zm0,3.5A2,2,0,0,1,46,31H43.56V29.88H46a.71.71,0,0,0,.51-.13.48.48,0,0,0,0-.7.73.73,0,0,0-.45-.12c-1.19,0-2.67,0-2.67-1.64,0-.77.48-1.58,1.81-1.58h2.53V24.66H45.38a2.62,2.62,0,0,0-1.59.43v-.43H40.32a2.44,2.44,0,0,0-1.51.43v-.43h-6.2v.43a3.38,3.38,0,0,0-1.71-.43H26.81v.43A2.9,2.9,0,0,0,25,24.66H20.44l-1,1.13-1-1.13H11.58v7.4h6.71l1.08-1.15,1,1.15h4.14V30.32h.41a4.37,4.37,0,0,0,1.76-.25v2H30.1V30.13h.17c.21,0,.23,0,.23.22v1.71H40.86a3,3,0,0,0,1.72-.47v.47h3.29a4.32,4.32,0,0,0,1.86-.34Zm-5.06-2.12a1.47,1.47,0,0,1,.38,1.12c0,1.15-.72,1.68-2,1.68H38.59V29.88h2.46a.75.75,0,0,0,.52-.13.49.49,0,0,0,.15-.34.45.45,0,0,0-.16-.36.73.73,0,0,0-.45-.12c-1.19,0-2.67,0-2.67-1.64,0-.77.48-1.58,1.81-1.58h2.54v1.13H40.47a.83.83,0,0,0-.51.1.39.39,0,0,0-.19.38.42.42,0,0,0,.28.4,2,2,0,0,0,.49.06h.68a2.07,2.07,0,0,1,1.45.43m-11.45-.33a1.17,1.17,0,0,1-.62.11H29.06V26.81h1.56a1.33,1.33,0,0,1,.6.09.51.51,0,0,1,.27.48.56.56,0,0,1-.27.51m.77.66a1.41,1.41,0,0,1,.62.45,1.51,1.51,0,0,1,.21,1V31H31.55v-.67c0-.32,0-.79-.2-1s-.47-.24-.93-.24H29.06V31H27.79V25.71h2.92a3,3,0,0,1,1.53.26,1.22,1.22,0,0,1,.65,1.17,1.47,1.47,0,0,1-.9,1.41m1.6-2.84h4.24v1.1h-3v1h2.89v1.09H34.86v1.05h3V31H33.59ZM25,28.16H23.4V26.81h1.65c.46,0,.78.18.78.65s-.3.7-.79.7m-2.91,2.38-1.94-2.17,1.94-2.08Zm-5-.63H14V28.86h2.78V27.77H14v-1h3.18l1.38,1.55Zm10.08-2.45c0,1.47-1.1,1.78-2.21,1.78H23.4V31H20.94l-1.57-1.76L17.75,31h-5V25.71h5.1l1.56,1.74L21,25.71h4.05c1,0,2.14.28,2.14,1.75"/>
        <path class="cls-1" d="M1.9,44.26a.86.86,0,0,1-.87.88.88.88,0,0,1,0-1.75.85.85,0,0,1,.87.87m.16,0a1,1,0,1,0-1,1,1,1,0,0,0,1-1m-.79-.21c0-.12-.08-.13-.14-.13H.84v.27h.27c.08,0,.16,0,.16-.14m.21.68H1.29a.8.8,0,0,1,0-.25c0-.07,0-.14-.14-.14H.84v.39H.67v-1h.45c.15,0,.32.06.32.27a.26.26,0,0,1-.1.22s.08.06.09.17v.17s0,0,.05.08Z"/>
      </g>
    </g>
  </g>
</svg>
