<svg xmlns="http://www.w3.org/2000/svg" width="48" height="12.79" viewBox="0 0 48 12.79">
  <defs>
    <style>
      .cls-1 {
        fill: #fff;
      }

      .cls-2 {
        fill: #1a1a18;
      }

      .cls-3 {
        fill: #0069aa;
      }
    </style>
  </defs>
  <title>Asset 11</title>
  <g id="Layer_2" data-name="Layer 2">
    <g id="Layer_1-2" data-name="Layer 1">
      <g>
        <circle class="cls-1" cx="6.44" cy="6.5" r="6.17"/>
        <g>
          <g>
            <path class="cls-2" d="M16.84,2.75c0-.6-.31-.56-.62-.57V2h2a2.45,2.45,0,0,1,2.69,2.35c0,.66-.39,2.34-2.77,2.34H16.22V6.52c.41,0,.6,0,.62-.51ZM17.5,5.9c0,.52.37.58.7.58a1.87,1.87,0,0,0,1.93-2.09A2,2,0,0,0,18,2.22a4.64,4.64,0,0,0-.52,0Z"/>
            <path class="cls-2" d="M21.11,6.52h.12c.19,0,.33,0,.33-.22V4.48c0-.3-.11-.34-.35-.47V3.9c.31-.09.69-.22.72-.24a.18.18,0,0,1,.12,0s0,0,0,.09V6.3c0,.22.15.22.34.22h.11V6.7H21.11Zm.72-3.93a.34.34,0,0,1-.33-.34.35.35,0,0,1,.33-.32.32.32,0,0,1,.32.32A.33.33,0,0,1,21.83,2.59Z"/>
            <path class="cls-2" d="M23.18,4.52c0-.25-.07-.32-.39-.44V4c.29-.1.57-.18.89-.32,0,0,0,0,0,.06v.44a1.92,1.92,0,0,1,1.16-.5c.58,0,.78.41.78.94V6.3c0,.22.15.22.33.22h.12V6.7H24.68V6.52h.12c.19,0,.32,0,.32-.22V4.56c0-.38-.24-.57-.62-.57a1.77,1.77,0,0,0-.78.32v2c0,.22.15.22.34.22h.12V6.7H22.74V6.52h.12c.19,0,.32,0,.32-.22Z"/>
            <path class="cls-2" d="M26.63,4.84a1.14,1.14,0,0,0,0,.39,1.13,1.13,0,0,0,1,1.17A1.33,1.33,0,0,0,28.52,6l.1.09a1.59,1.59,0,0,1-1.25.76,1.35,1.35,0,0,1-1.28-1.47,1.5,1.5,0,0,1,1.36-1.7,1.06,1.06,0,0,1,1.13,1V4.8l-.06,0Zm1.19-.21c.16,0,.18-.09.18-.17a.57.57,0,0,0-.58-.62c-.41,0-.69.3-.77.79Z"/>
            <path class="cls-2" d="M28.74,6.52h.18c.19,0,.32,0,.32-.22V4.41c0-.21-.25-.25-.35-.3V4c.49-.21.76-.38.82-.38s.06,0,.06.08v.61h0c.16-.26.45-.69.86-.69A.36.36,0,0,1,31,4a.34.34,0,0,1-.32.35c-.2,0-.2-.17-.44-.17a.58.58,0,0,0-.49.56V6.3c0,.22.13.22.32.22h.38V6.7H28.74Z"/>
            <path class="cls-2" d="M31.33,5.76a.87.87,0,0,0,.84.82c.4,0,.55-.24.55-.47,0-.8-1.47-.54-1.47-1.62a.93.93,0,0,1,1-.86,1.81,1.81,0,0,1,.76.19l0,.69H33a.68.68,0,0,0-.73-.67.47.47,0,0,0-.52.44c0,.79,1.56.55,1.56,1.6,0,.45-.36.92-1.16.92a1.69,1.69,0,0,1-.82-.23l-.07-.77Z"/>
            <path class="cls-2" d="M39.33,3.22h-.17a1.29,1.29,0,0,0-1.44-1.1,1.92,1.92,0,0,0-1.9,2.13,2.19,2.19,0,0,0,2,2.33,1.36,1.36,0,0,0,1.35-1.16l.15,0-.15,1a3.67,3.67,0,0,1-1.49.36,2.39,2.39,0,0,1-2.56-2.53A2.47,2.47,0,0,1,37.67,1.9a4.9,4.9,0,0,1,1.59.36Z"/>
            <path class="cls-2" d="M39.57,6.52h.13c.19,0,.32,0,.32-.22V2.56c0-.44-.1-.45-.36-.53V1.92a3.21,3.21,0,0,0,.7-.29l.15-.07s.05,0,.05.1V6.3c0,.22.15.22.34.22H41V6.7H39.57Z"/>
            <path class="cls-2" d="M43.89,6.33c0,.12.07.13.19.13h.27v.14a7.08,7.08,0,0,0-1,.21l0,0V6.24a1.84,1.84,0,0,1-1.19.56.73.73,0,0,1-.74-.8V4.28c0-.18,0-.35-.4-.38V3.77c.24,0,.78,0,.87,0s.07,0,.07.19V5.66c0,.2,0,.78.59.78A1.55,1.55,0,0,0,43.35,6V4.22c0-.14-.32-.21-.56-.28V3.82c.6,0,1-.09,1-.09s.06,0,.06.12Z"/>
            <path class="cls-2" d="M45.23,4.11a1.66,1.66,0,0,1,1-.48A1.31,1.31,0,0,1,47.48,5,1.7,1.7,0,0,1,45.87,6.8a1.85,1.85,0,0,1-.93-.24l-.21.16-.14-.07a8,8,0,0,0,.1-1.2V2.56c0-.44-.1-.45-.36-.53V1.92A3.1,3.1,0,0,0,45,1.63l.15-.07s.06,0,.06.1Zm0,1.83a.72.72,0,0,0,.69.68c.72,0,1-.7,1-1.3A1.28,1.28,0,0,0,45.87,4a1,1,0,0,0-.64.32Z"/>
          </g>
          <g>
            <path class="cls-2" d="M16.22,10.61h.05c.13,0,.27,0,.27-.21V8.48c0-.19-.14-.21-.27-.21h-.05V8.16l.54,0,.57,0v.11h0c-.13,0-.27,0-.27.21V10.4c0,.19.14.21.27.21h0v.11l-.58,0-.53,0Z"/>
            <path class="cls-2" d="M17.33,10.73H16.2v-.13h.07c.13,0,.25,0,.25-.19h0V8.48c0-.18-.12-.19-.25-.19H16.2V8.15h1.15v.13h-.07c-.13,0-.25,0-.25.19h0V10.4c0,.18.12.19.25.19h.07v.14Zm0,0v-.08h0c-.13,0-.29,0-.29-.22h0V8.48c0-.2.16-.22.29-.22h0V8.18H16.23v.08h0c.13,0,.28,0,.28.22h0V10.4c0,.2-.15.22-.28.22h0v.08h1.09Z"/>
          </g>
          <g>
            <path class="cls-2" d="M19.85,10h0V8.62a.31.31,0,0,0-.32-.35h-.08V8.16l.52,0,.45,0v.11h-.06c-.15,0-.32,0-.32.47V10.4a2.17,2.17,0,0,0,0,.37h-.14L18,8.67v1.51c0,.32.07.43.35.43h.06v.11l-.47,0-.5,0v-.11h.05c.25,0,.33-.17.33-.47V8.6a.33.33,0,0,0-.33-.33h-.05V8.16l.42,0,.33,0Z"/>
            <path class="cls-2" d="M20.06,10.79h-.15L18.05,8.71v1.47c0,.32.05.41.33.41h.08v.14h-1v-.13h.07c.24,0,.31-.15.32-.45h0V8.6a.31.31,0,0,0-.32-.31h-.07V8.15h.78L19.84,10V8.62c0-.29-.2-.33-.31-.33h-.09V8.15h1v.13h-.07c-.15,0-.3,0-.31.45h0V10.4a2.17,2.17,0,0,0,0,.37h0v0Zm-.14,0H20a2.11,2.11,0,0,1,0-.36h0V8.74c0-.44.18-.48.34-.48h0V8.18h-.93v.08h.06a.32.32,0,0,1,.34.36h0V10h0L18.22,8.18h-.73v.08h0a.35.35,0,0,1,.35.34h0v1.54c0,.3-.08.48-.35.48h0v.08h.93v-.08h0c-.29,0-.36-.12-.36-.44h0V8.63l1.9,2.13ZM19.85,10h0Zm0,0Z"/>
          </g>
          <g>
            <path class="cls-2" d="M21,8.35c-.27,0-.28.06-.34.33h-.11a2.87,2.87,0,0,0,0-.31c0-.1,0-.21,0-.31h.09c0,.11.12.1.22.1h1.89c.09,0,.19,0,.19-.11l.09,0c0,.09,0,.19,0,.29s0,.2,0,.3l-.11,0c0-.14,0-.35-.27-.35H22v1.94c0,.29.13.32.31.32h.07v.11l-.6,0-.62,0v-.11h.07c.2,0,.3,0,.3-.31v-2Z"/>
            <path class="cls-2" d="M22.41,10.73H21.18v-.13h.08c.2,0,.28,0,.29-.29h0V8.36H21v0h.62v2c0,.29-.12.32-.32.32h-.05v.08h1.18v-.08h-.05c-.18,0-.32,0-.32-.33h0v-2h.61c.25,0,.28.21.29.35h0l.08,0V8.36h0a2.7,2.7,0,0,0,0-.28H23c0,.11-.12.11-.21.11H20.87c-.09,0-.18,0-.21-.11H20.6a1.45,1.45,0,0,1,0,.3h0a2.54,2.54,0,0,1,0,.29h.08c.05-.25.08-.33.35-.33h0v0h0c-.27,0-.26.05-.32.32h0v0H20.5v0c0-.1,0-.21,0-.31h0a1.67,1.67,0,0,0,0-.31h0V8h.12c0,.1.1.1.19.1h1.91c.1,0,.17,0,.18-.1h0V8h.12v0a2.89,2.89,0,0,0,0,.29h0c0,.1,0,.2,0,.3h0l-.13.05v0c0-.14,0-.34-.26-.34h-.58v1.93c0,.28.11.3.29.3h.08v.14Z"/>
          </g>
          <g>
            <path class="cls-2" d="M23.18,10.61h.05c.13,0,.27,0,.27-.21V8.48c0-.19-.14-.21-.27-.21h-.05V8.16l.91,0,.93,0c0,.16,0,.4,0,.56l-.11,0c0-.23-.06-.42-.44-.42H24v.95h.43c.22,0,.27-.12.29-.32h.11c0,.15,0,.29,0,.43s0,.28,0,.42l-.11,0c0-.22,0-.36-.28-.36H24v.85c0,.24.21.24.44.24.44,0,.64,0,.75-.45l.1,0a5.41,5.41,0,0,0-.12.58l-1,0-1,0Z"/>
            <path class="cls-2" d="M25.14,10.73h-2v-.13h.07c.13,0,.25,0,.25-.19h0V8.48c0-.18-.12-.19-.25-.19h-.07V8.15H25v.19h0c0,.13,0,.27,0,.37h0v0h0l-.13,0v0c0-.23-.06-.41-.43-.41H24v.93h.42c.21,0,.25-.11.28-.31h.14c0,.15,0,.29,0,.43h0c0,.14,0,.28,0,.42h0l-.13,0v0c0-.22,0-.34-.27-.35H24v.84c0,.22.2.22.43.22h0c.45,0,.62,0,.73-.43h0v0h0l.12,0h0c0,.19-.09.39-.12.58h0Zm0,0a5.41,5.41,0,0,1,.12-.55h0l-.07,0c-.11.41-.32.45-.76.44h0c-.23,0-.46,0-.46-.25h0V9.45h.46c.25,0,.28.15.3.36h0l.08,0c0-.13,0-.27,0-.4h0c0-.14,0-.27,0-.41h-.08c0,.19-.08.32-.31.32H24v-1h.53c.38,0,.44.19.46.42h0l.08,0c0-.1,0-.23,0-.36h0V8.18H23.19v.08h0c.13,0,.29,0,.29.22h0V10.4c0,.2-.16.22-.29.22h0v.08h1.93Z"/>
          </g>
          <g>
            <path class="cls-2" d="M25.75,8.55c0-.27-.14-.28-.26-.28h-.06V8.16l.56,0,.59,0c.46,0,.87.13.87.65a.67.67,0,0,1-.5.64l.62.94a.42.42,0,0,0,.36.22v.11l-.36,0-.35,0a11,11,0,0,1-.76-1.19h-.24v.79c0,.28.13.29.3.29h.07v.11l-.63,0-.53,0v-.11h.06c.14,0,.26-.06.26-.2Zm.47.85h.18c.37,0,.56-.14.56-.57a.49.49,0,0,0-.53-.53h-.21Z"/>
            <path class="cls-2" d="M27.93,10.73h-.72a10.83,10.83,0,0,1-.76-1.18h-.21v.77c0,.27.11.27.28.27h.08v.14H25.41v-.13h.08c.14,0,.25-.06.25-.18h0V8.55c0-.26-.13-.26-.25-.26h-.08V8.15h1.17c.46,0,.89.13.89.66h0a.71.71,0,0,1-.5.65h0l.61.92a.4.4,0,0,0,.35.21h0v.14ZM26.22,9.52h.26a9.11,9.11,0,0,0,.74,1.18h.69v-.08a.41.41,0,0,1-.35-.22h0l-.64-1h0a.68.68,0,0,0,.5-.63h0c0-.51-.4-.63-.86-.63H25.44v.08h0c.12,0,.28,0,.28.29h0v1.86c0,.15-.14.21-.28.21h0v.08h1.13v-.08h-.05c-.17,0-.31,0-.31-.3h0v-.8Zm0-.1h0V8.3h.22a.52.52,0,0,1,.55.55h0c0,.44-.21.59-.58.59h-.18Zm.18,0c.36,0,.55-.13.55-.56h0a.48.48,0,0,0-.52-.52h0a.71.71,0,0,0-.19,0h0V9.39Z"/>
          </g>
          <g>
            <path class="cls-2" d="M30.41,10h0V8.62a.31.31,0,0,0-.32-.35H30V8.16l.51,0,.45,0v.11h-.05c-.16,0-.33,0-.33.47V10.4a2.17,2.17,0,0,0,0,.37h-.14L28.6,8.67v1.51c0,.32.06.43.34.43H29v.11l-.48,0-.49,0v-.11h.05c.25,0,.33-.17.33-.47V8.6a.33.33,0,0,0-.34-.33h0V8.16l.42,0,.32,0Z"/>
            <path class="cls-2" d="M30.62,10.79h-.15L28.61,8.71v1.47c0,.32.06.41.33.41H29v.14H28v-.13h.07c.24,0,.31-.15.31-.45h0V8.6a.31.31,0,0,0-.32-.31H28V8.15h.77L30.4,10V8.62c0-.29-.19-.33-.3-.33H30V8.15h1v.13h-.07c-.15,0-.31,0-.31.45h0V10.4a2.17,2.17,0,0,0,0,.37h0v0Zm-.14,0h.12c0-.11,0-.24,0-.36h0V8.74c0-.44.19-.48.35-.48h0V8.18H30v.08h.07a.32.32,0,0,1,.33.36h0V10h0L28.78,8.18h-.73v.08h0a.34.34,0,0,1,.35.34h0v1.54c0,.3-.08.48-.34.48h0v.08H29v-.08h0c-.28,0-.36-.12-.36-.44h0V8.63l1.9,2.13ZM30.41,10h0Zm0,0Z"/>
          </g>
          <g>
            <path class="cls-2" d="M31.57,10.2a1.25,1.25,0,0,0-.08.28c0,.11.15.13.27.13h0v.11l-.44,0-.39,0v-.11h0a.35.35,0,0,0,.32-.24l.58-1.68A2.59,2.59,0,0,0,32,8.24a2.56,2.56,0,0,0,.33-.16h.06l0,.1.67,1.91a3.18,3.18,0,0,0,.14.37.23.23,0,0,0,.24.15h0v.11l-.5,0-.55,0v-.11h0c.08,0,.22,0,.22-.11a1.13,1.13,0,0,0-.07-.26l-.14-.43h-.83Zm.53-1.63h0l-.34,1h.68Z"/>
            <path class="cls-2" d="M33.52,10.73H32.45v-.15h.06c.08,0,.21,0,.21-.09h0a1,1,0,0,0-.08-.26h0l-.13-.41H31.7l-.12.37a2.22,2.22,0,0,0-.08.28h0c0,.09.14.11.26.11h.06v.15H31v-.15h0a.32.32,0,0,0,.3-.22h0l.59-1.68c0-.14.11-.32.14-.47h0a2.1,2.1,0,0,0,.33-.15h0a0,0,0,0,1,0,0h0l0,.09h0l.68,1.91a3.37,3.37,0,0,0,.13.38h0a.22.22,0,0,0,.23.13h0v.15Zm-1,0h1v-.08h0a.24.24,0,0,1-.26-.15h0a3.37,3.37,0,0,1-.13-.38h0l-.68-1.91,0-.09h0a1.26,1.26,0,0,1-.33.15h0a4,4,0,0,1-.13.46h0l-.59,1.68a.34.34,0,0,1-.33.24h0v.08h.81v-.08h0c-.12,0-.28,0-.29-.14h0a1.9,1.9,0,0,1,.08-.29h0l.12-.39h.86l.14.43a.9.9,0,0,1,.08.27h0c0,.11-.16.12-.24.12h0v.08Zm-.75-1.07.35-1.07h0l.34,1.07Zm.05,0h.64l-.32-1-.32,1Zm.31-1h0Z"/>
          </g>
          <g>
            <path class="cls-2" d="M33.68,8.35c-.27,0-.28.06-.34.33h-.11a2.91,2.91,0,0,0,0-.31,1.63,1.63,0,0,0,0-.31h.08c0,.11.13.1.22.1h1.89c.1,0,.19,0,.2-.11l.09,0a2.54,2.54,0,0,0,0,.29c0,.1,0,.2,0,.3l-.11,0c0-.14,0-.35-.27-.35h-.6v1.94c0,.29.13.32.3.32h.07v.11l-.59,0-.62,0v-.11H34c.2,0,.3,0,.3-.31v-2Z"/>
            <path class="cls-2" d="M35.12,10.73H33.89v-.13H34c.2,0,.28,0,.28-.29h0V8.36h-.58v0h.62v2c0,.29-.12.32-.32.32h-.06v.08h1.19v-.08h-.06c-.17,0-.32,0-.32-.33h0v-2h.62c.25,0,.28.21.28.35h0l.08,0a2.81,2.81,0,0,1,0-.29h0c0-.09,0-.19,0-.28H35.7c0,.11-.12.11-.21.11h-1.9c-.09,0-.18,0-.22-.11h-.06a2.83,2.83,0,0,1,0,.3h0c0,.1,0,.2,0,.29h.08c.05-.25.08-.33.35-.33h0v0h0c-.27,0-.26.05-.32.32h0v0h-.14v0c0-.1,0-.21,0-.31h0c0-.11,0-.21,0-.31h0V8h.12c0,.1.09.1.19.1h1.9c.1,0,.18,0,.18-.1h0V8h.13v0c0,.1,0,.19,0,.29h0v.3h0l-.13.05v0c0-.14,0-.34-.25-.34h-.59v1.93c0,.28.12.3.29.3h.09v.14Z"/>
          </g>
          <g>
            <path class="cls-2" d="M35.91,10.61H36c.14,0,.27,0,.27-.21V8.48c0-.19-.13-.21-.27-.21h-.05V8.16l.54,0,.58,0v.11H37c-.14,0-.27,0-.27.21V10.4c0,.19.13.21.27.21H37v.11l-.58,0-.54,0Z"/>
            <path class="cls-2" d="M37,10.73H35.9v-.13H36c.14,0,.26,0,.26-.19h0V8.48c0-.18-.12-.19-.26-.19H35.9V8.15H37v.13H37c-.14,0-.26,0-.26.19h0V10.4c0,.18.12.19.26.19H37v.14Zm0,0v-.08h0c-.13,0-.29,0-.29-.22h0V8.48c0-.2.16-.22.29-.22h0V8.18H35.93v.08h0c.13,0,.29,0,.29.22h0V10.4c0,.2-.16.22-.29.22h0v.08H37Z"/>
          </g>
          <g>
            <path class="cls-2" d="M38.49,8.11a1.28,1.28,0,0,1,1.4,1.26,1.34,1.34,0,0,1-1.38,1.4,1.29,1.29,0,0,1-1.37-1.31A1.33,1.33,0,0,1,38.49,8.11Zm0,2.5c.71,0,.84-.62.84-1.16s-.29-1.18-.9-1.18-.83.57-.83,1.06C37.65,10,38,10.61,38.54,10.61Z"/>
            <path class="cls-2" d="M37.12,9.46a1.35,1.35,0,0,1,1.37-1.37h0v0a1.31,1.31,0,0,0-1.34,1.33h0a1.28,1.28,0,0,0,1.36,1.3h0a1.32,1.32,0,0,0,1.36-1.39h0a1.26,1.26,0,0,0-1.38-1.24h0v0A1.3,1.3,0,0,1,39.9,9.37h0a1.36,1.36,0,0,1-1.39,1.42h0a1.31,1.31,0,0,1-1.39-1.33Zm.51-.13c0-.49.2-1.08.85-1.08h0c.62,0,.91.66.91,1.2h0c0,.54-.12,1.18-.85,1.18h0v0h0c.7,0,.82-.61.82-1.15h0c0-.53-.29-1.16-.88-1.16h0c-.63,0-.81.55-.81,1h0c0,.65.29,1.26.87,1.27h0v0c-.6,0-.91-.64-.91-1.3Z"/>
          </g>
          <g>
            <path class="cls-2" d="M42.36,10h0V8.62A.31.31,0,0,0,42,8.27H42V8.16l.52,0,.45,0v.11h-.06c-.15,0-.33,0-.33.47V10.4a2.13,2.13,0,0,0,0,.37h-.14l-1.89-2.1v1.51c0,.32.07.43.35.43H41v.11l-.47,0-.5,0v-.11H40c.25,0,.33-.17.33-.47V8.6A.33.33,0,0,0,40,8.27H40V8.16l.42,0,.33,0Z"/>
            <path class="cls-2" d="M42.57,10.79h-.15L40.56,8.71v1.47c0,.32,0,.41.33.41H41v.14H40v-.13H40c.24,0,.31-.15.31-.45h0V8.6A.31.31,0,0,0,40,8.29H40V8.15h.78L42.35,10V8.62A.29.29,0,0,0,42,8.29H42V8.15h1v.13h-.07c-.15,0-.31,0-.31.45h0V10.4a2.17,2.17,0,0,0,0,.37h0v0Zm-.14,0h.12a2.11,2.11,0,0,1,0-.36h0V8.74c0-.44.18-.48.34-.48h0V8.18H42v.08H42a.32.32,0,0,1,.34.36h0V10h0L40.73,8.18H40v.08h0a.35.35,0,0,1,.35.34h0v1.54c0,.3-.09.48-.35.48h0v.08h.93v-.08h0c-.29,0-.36-.12-.36-.44h0V8.63l1.9,2.13ZM42.36,10h0Zm0,0Z"/>
          </g>
          <g>
            <path class="cls-2" d="M43.51,10.2a2.22,2.22,0,0,0-.08.28c0,.11.16.13.28.13h0v.11l-.44,0-.4,0v-.11h0a.34.34,0,0,0,.32-.24l.59-1.68A3.81,3.81,0,0,0,44,8.24a2,2,0,0,0,.33-.16h.06l0,.1.68,1.91a3.19,3.19,0,0,0,.13.37.23.23,0,0,0,.24.15h0v.11l-.5,0-.55,0v-.11h0c.08,0,.23,0,.23-.11a1.34,1.34,0,0,0-.08-.26l-.14-.43h-.83Zm.54-1.63h0l-.34,1h.69Z"/>
            <path class="cls-2" d="M45.46,10.73H44.39v-.15h.06c.09,0,.21,0,.21-.09h0a1.28,1.28,0,0,0-.07-.26h0l-.14-.41h-.81l-.11.37h0a1.41,1.41,0,0,0-.08.28h0c0,.09.14.11.26.11h0v.15H42.9v-.15h0a.33.33,0,0,0,.31-.22h0l.58-1.68c0-.14.11-.32.15-.47h0l.33-.15h0a0,0,0,0,1,0,0h0l0,.09h0l.67,1.91a3.35,3.35,0,0,0,.14.38h0a.21.21,0,0,0,.22.13h0v.15Zm-1,0h1v-.08h0a.23.23,0,0,1-.25-.15h0a3.35,3.35,0,0,1-.14-.38h0l-.67-1.91a.32.32,0,0,1,0-.09h0a1.19,1.19,0,0,1-.32.15h0a4,4,0,0,1-.14.46h0l-.59,1.68a.34.34,0,0,1-.33.24h0v.08h.8v-.08h0c-.12,0-.29,0-.29-.14h0a1.17,1.17,0,0,1,.08-.29h0l.12-.39h.85l.15.43a1.18,1.18,0,0,1,.07.27h0c0,.11-.16.12-.24.12h0v.08Zm-.75-1.08L44,8.56h0l.35,1.06Zm0,0h.64l-.32-1-.32,1Zm.31-1h0Z"/>
          </g>
          <g>
            <path class="cls-2" d="M46.39,10.36c0,.15.1.19.22.2a1.93,1.93,0,0,0,.48,0,.56.56,0,0,0,.35-.2.73.73,0,0,0,.11-.26h.11c0,.2-.09.41-.14.62l-1,0-1,0v-.11h0c.14,0,.28,0,.28-.25V8.48c0-.19-.14-.21-.28-.21h0V8.16l.58,0,.56,0v.11h-.1c-.13,0-.24,0-.24.2Z"/>
            <path class="cls-2" d="M47.52,10.73H45.58v-.13h.06c.14,0,.26,0,.26-.23h0V8.48c0-.18-.12-.19-.26-.19h-.06V8.15h1.16v.13h-.11c-.14,0-.23,0-.23.18h0v1.89c0,.14.09.17.21.19h.2l.28,0h0a.52.52,0,0,0,.34-.19h0a1,1,0,0,0,.11-.26h.14v0c0,.21-.1.41-.14.62h0Zm0,0c0-.2.09-.39.13-.59h-.08a.73.73,0,0,1-.11.26h0a.56.56,0,0,1-.36.2h0l-.28,0H46.6c-.12,0-.23-.06-.23-.22h0V8.47c0-.2.13-.21.26-.21h.08V8.18h-1.1v.08h0c.13,0,.29,0,.29.22h0v1.88c0,.24-.16.26-.29.26h0v.08h1.9Z"/>
          </g>
          <path class="cls-2" d="M47.61,8.06a.39.39,0,1,1,0,.77.39.39,0,0,1,0-.77Zm0,.7a.32.32,0,1,0-.3-.31A.31.31,0,0,0,47.61,8.76Zm-.19-.11v0s.06,0,.06,0V8.31s0-.05-.06-.05v0h.2c.07,0,.13,0,.13.1a.13.13,0,0,1-.09.12l.06.09.09.09h-.08s-.06-.08-.13-.18h-.05V8.6s0,0,.06,0v0Zm.13-.2h.05s.07,0,.07-.1a.07.07,0,0,0-.07-.08h-.05Z"/>
        </g>
        <path class="cls-3" d="M6.45,12.79A6.41,6.41,0,0,1,0,6.45,6.31,6.31,0,0,1,6.45,0H8.11a6.53,6.53,0,0,1,6.68,6.45,6.65,6.65,0,0,1-6.68,6.34ZM6.46.53a5.85,5.85,0,1,0,5.86,5.85A5.85,5.85,0,0,0,6.46.53ZM5.13,9.84V2.92a3.71,3.71,0,0,0,0,6.92Zm5-3.46A3.7,3.7,0,0,0,7.79,2.92V9.84A3.7,3.7,0,0,0,10.17,6.38Z"/>
      </g>
    </g>
  </g>
</svg>
