<?xml version="1.0" encoding="utf-8"?>
<svg xmlns="http://www.w3.org/2000/svg" width="160" height="53" viewBox="0 0 283.5 95">
<style type="text/css">
	.st0{fill:#9D0F38;}
	.st1{fill:#A2964E;}
</style>
<g id="Wortmarke_rot_BirdSimple_Wein_sub_RGB-2">
	<path id="Wein" class="st0" d="M15,82.8L9.8,94.7H9.4L0.7,75.3h3.7l5.2,12.2L14.9,75h0.3l5.3,12.5l5.2-12.2h3.7l-8.7,19.4h-0.4
		L15,82.8z M34.6,86.6v4.9H44v3H31.2V75.3H44v3h-9.5v5.2h7.4v3L34.6,86.6L34.6,86.6z M51.8,94.5h-3.4V75.3h3.4V94.5L51.8,94.5z
		 M55.9,75.1l12,11.7V75.3h3.4v19.2L71,94.7L59,83v11.5h-3.4V75.2L55.9,75.1z"/>
	<path id="MOVENPICK_150929" class="st0" d="M27.2,56.8l-12-23.3l-6.8,21c-1.5,4.5-3.8,4.2-7,4.2H0.7l13.6-39.7
		c0-0.1,0.1-0.1,0.2-0.1c0,0,0.1,0.1,0.1,0.1l12.7,27.2l12.7-27.2c0-0.1,0.1-0.1,0.2-0.1c0,0,0.1,0.1,0.1,0.1l13.6,39.6h-0.6
		c-3.2,0-5.6,0.2-7-4.2l-6.8-21l-12,23.3c-0.1,0.1-0.2,0.2-0.3,0.1C27.2,56.8,27.2,56.8,27.2,56.8z M102.7,59.2h-0.6L87.1,25.9h6.4
		l8.9,21.4l8.8-21.4h6.3L102.7,59.2z M126.7,45.1v8.4h16.2v5.2h-22V25.9h22v5.2h-16.2v9h12.7v5.2L126.7,45.1L126.7,45.1z
		 M149.1,25.5l20.7,20V25.9h5.8v33l-0.4,0.2L154.5,39v19.7h-5.8v-33L149.1,25.5z M188.2,58.7h-5.8V25.9h12.4c9,0,11.6,6.2,11.6,10.5
		c0,6.4-5.6,10.6-10.9,10.6h-7.3V58.7z M200.6,36.4c0.1-2.8-2.1-5.2-4.9-5.4c-0.2,0-0.4,0-0.6,0h-6.9v10.7h7c2.9,0.1,5.3-2.1,5.4-5
		C200.5,36.6,200.6,36.5,200.6,36.4L200.6,36.4z M217.2,58.7h-5.8V25.9h5.8V58.7z M247.2,34.9c-2.2-2.5-5.3-4-8.6-4.1
		c-9.2,0-10.5,8.7-10.5,11.6s1.3,11.6,10.5,11.6c3.5,0,6.9-2.1,9.1-4.1L251,54c-3.2,3.4-7.7,5.3-12.4,5.2
		c-12.5,0-16.3-9.8-16.3-16.9c0-6.8,3.8-16.8,16.3-16.8c4.8-0.1,9.4,2,12.5,5.7L247.2,34.9z M256.2,58.7V25.9h5.8v13.5l12.8-13.6
		h6.8l0.2,0.2l-15.1,15.6l16.1,16.7l-0.1,0.3h-7l-13.7-14.5v14.6H256.2L256.2,58.7z M70.8,25.4c-12.7,0-16.4,9.9-16.4,16.8
		c0,7.1,3.6,17,16.4,17s16.4-9.9,16.4-17C87.1,35.3,83.5,25.4,70.8,25.4z M67.3,18.5c0,1.8-1.5,3.2-3.2,3.2c-1.8,0-3.2-1.5-3.2-3.2
		c0-1.8,1.5-3.2,3.2-3.2C65.8,15.2,67.3,16.6,67.3,18.5L67.3,18.5z M80.7,18.5c0,1.8-1.5,3.2-3.2,3.2c-1.8,0-3.2-1.5-3.2-3.2
		c0-1.8,1.5-3.2,3.2-3.2C79.2,15.2,80.7,16.6,80.7,18.5C80.7,18.4,80.7,18.4,80.7,18.5L80.7,18.5z M70.8,54.1
		c-9.3,0-10.7-8.9-10.7-11.9c0-3,1.4-11.7,10.7-11.7s10.7,8.6,10.7,11.7C81.5,45.2,80.1,54.1,70.8,54.1z"/>
	<path id="Bird" class="st1" d="M162.9,12.3c6.3-4.4,10.6-6,13.9-6c1.3-0.1,2.6,0.1,3.8,0.6c-10.9,1.9-10.2,12.3-21.3,12.3
		c-5.7,0-10.8-5.3-14.7-9.6c-3.7-4.2-7.9-7.9-13.5-9c1.3-0.3,2.7-0.5,4.1-0.5c7.4,0,11.9,4.2,16.9,8.4c4,3.3,9.3,6.4,14.2,6.4
		c0.7,0,1.3-0.1,2-0.2C166.4,14.2,164.5,13.5,162.9,12.3z"/>
</g>
</svg>
