<svg xmlns="http://www.w3.org/2000/svg" width="48" height="37.35" viewBox="0 0 48 37.35">
  <defs>
    <style>
      .cls-1 {
        fill: #231f20;
      }

      .cls-2 {
        fill: #ff5f00;
      }

      .cls-3 {
        fill: #eb001b;
      }

      .cls-4 {
        fill: #f79410;
      }

      .cls-5 {
        fill: #f79e1b;
      }
    </style>
  </defs>
  <title>Asset 14</title>
  <g id="Layer_2" data-name="Layer 2">
    <g id="Layer_1-2" data-name="Layer 1">
      <g>
        <path class="cls-1" d="M47,36.84v.1h.09l0,0s0,0,0,0a.05.05,0,0,0,0,0H47Zm.09-.07a.18.18,0,0,1,.11,0,.12.12,0,0,1,0,.09s0,0,0,.07l-.08,0,.12.13h-.09L47.05,37h0v.13h-.08v-.36Zm0,.49a.2.2,0,0,0,.11,0,.21.21,0,0,0,.1-.06.36.36,0,0,0,.07-.1.37.37,0,0,0,0-.12.5.5,0,0,0,0-.12l-.07-.09-.1-.07-.11,0-.12,0-.1.07-.07.09a.5.5,0,0,0,0,.12.37.37,0,0,0,0,.12.36.36,0,0,0,.07.1.21.21,0,0,0,.1.06.21.21,0,0,0,.12,0m0-.7a.4.4,0,0,1,.15,0,.38.38,0,0,1,.13.09.36.36,0,0,1,.08.12.4.4,0,0,1,0,.15.41.41,0,0,1,0,.16l-.08.12a.35.35,0,0,1-.13.08.32.32,0,0,1-.31,0,.35.35,0,0,1-.13-.08l-.08-.12a.32.32,0,0,1,0-.31.36.36,0,0,1,.08-.12.38.38,0,0,1,.13-.09.41.41,0,0,1,.16,0m-36.76-1.4a1.19,1.19,0,1,1,1.2,1.26,1.18,1.18,0,0,1-1.2-1.26m3.19,0v-2h-.86v.48a1.5,1.5,0,0,0-1.24-.58,2.07,2.07,0,0,0,0,4.14,1.47,1.47,0,0,0,1.24-.58v.48h.86Zm29,0a1.19,1.19,0,1,1,1.19,1.26,1.18,1.18,0,0,1-1.19-1.26m3.19,0V31.61H44.8v2.06a1.5,1.5,0,0,0-1.24-.58,2.07,2.07,0,0,0,0,4.14,1.47,1.47,0,0,0,1.24-.58v.48h.86Zm-21.51-1.3a1,1,0,0,1,1,1h-2a1,1,0,0,1,1-1m0-.77a2.07,2.07,0,0,0,.06,4.14,2.41,2.41,0,0,0,1.61-.55l-.42-.63a1.9,1.9,0,0,1-1.14.41,1.09,1.09,0,0,1-1.18-1H26a3.25,3.25,0,0,0,0-.33,1.89,1.89,0,0,0-1.87-2.07m10.34,2.07a1.2,1.2,0,1,1,1.2,1.26,1.19,1.19,0,0,1-1.2-1.26m3.19,0v-2h-.85v.48a1.53,1.53,0,0,0-1.25-.58,2.07,2.07,0,0,0,0,4.14,1.5,1.5,0,0,0,1.25-.58v.48h.85Zm-8,0a2,2,0,0,0,2.1,2.07,2,2,0,0,0,1.41-.47l-.41-.69a1.73,1.73,0,0,1-1,.35,1.26,1.26,0,0,1,0-2.52,1.74,1.74,0,0,1,1,.36l.41-.7a2.07,2.07,0,0,0-1.41-.47,2,2,0,0,0-2.1,2.07m11-2.07a1.18,1.18,0,0,0-1,.58v-.48h-.85v3.94h.86V34.92c0-.65.28-1,.84-1a1.35,1.35,0,0,1,.54.1l.26-.81a2,2,0,0,0-.61-.11m-23,.42a2.9,2.9,0,0,0-1.61-.42c-1,0-1.64.48-1.64,1.27s.48,1,1.36,1.16l.4.06c.47.06.7.19.7.41s-.32.48-.9.48a2,2,0,0,1-1.31-.42l-.41.67a2.83,2.83,0,0,0,1.71.51c1.14,0,1.8-.53,1.8-1.28s-.52-1.06-1.38-1.18l-.4-.06c-.38-.05-.67-.12-.67-.39s.28-.46.75-.46a2.54,2.54,0,0,1,1.23.34Zm11-.42a1.18,1.18,0,0,0-1,.58v-.48h-.85v3.94h.86V34.92c0-.65.28-1,.84-1a1.35,1.35,0,0,1,.54.1l.26-.81a2,2,0,0,0-.61-.11m-7.31.1H20.1V32h-.87v1.19h-.8V34h.8v1.79c0,.92.36,1.46,1.37,1.46a2,2,0,0,0,1.07-.3l-.25-.74a1.54,1.54,0,0,1-.75.23c-.43,0-.57-.27-.57-.66V34h1.4ZM8.69,37.13V34.66a1.47,1.47,0,0,0-1.55-1.57,1.53,1.53,0,0,0-1.38.71,1.46,1.46,0,0,0-1.31-.71,1.3,1.3,0,0,0-1.15.59v-.49H2.44v3.94h.87V35a.93.93,0,0,1,1-1.05c.57,0,.86.37.86,1v2.19H6V35A.93.93,0,0,1,7,33.9c.58,0,.86.37.86,1v2.19Z"/>
        <path class="cls-2" d="M30.49,26.51h-13V3.17h13Z"/>
        <path class="cls-3" d="M18.34,14.84A14.84,14.84,0,0,1,24,3.17,14.85,14.85,0,1,0,24,26.5a14.8,14.8,0,0,1-5.67-11.66"/>
        <g>
          <path class="cls-4" d="M47.55,24v-.57H47.4l-.18.39-.17-.39H46.9V24H47V23.6l.16.37h.11l.16-.37V24Zm-.95,0v-.48h.19v-.09H46.3v.09h.19V24Z"/>
          <path class="cls-5" d="M48,14.84A14.83,14.83,0,0,1,24,26.5,14.83,14.83,0,0,0,24,3.17,14.84,14.84,0,0,1,48,14.84"/>
        </g>
      </g>
    </g>
  </g>
</svg>
