<svg xmlns="http://www.w3.org/2000/svg" width="48" height="11.63" viewBox="0 0 48 11.63">
  <defs>
    <style>
      .cls-1 {
        fill: #009de2;
      }

      .cls-2 {
        fill: #113984;
      }

      .cls-3 {
        fill: #172c70;
      }
    </style>
  </defs>
  <title>Asset 15</title>
  <g id="Layer_2" data-name="Layer 2">
    <g id="Layer_1-2" data-name="Layer 1">
      <g>
        <g>
          <path class="cls-1" d="M4.19,2.74H7.47c1.76,0,2.42.89,2.32,2.2C9.62,7.1,8.31,8.3,6.58,8.3H5.71c-.24,0-.4.16-.46.58l-.38,2.48c0,.16-.11.26-.24.27H2.57c-.19,0-.26-.15-.21-.47L3.62,3.21A.5.5,0,0,1,4.19,2.74Z"/>
          <path class="cls-1" d="M37.28,2.59a1.8,1.8,0,0,1,2,2.09c-.17,1.78-1.12,2.77-2.62,2.77H35.33c-.18,0-.28.15-.32.47l-.26,1.62c0,.24-.16.36-.35.36H33.18c-.19,0-.26-.13-.22-.4L34,3c.05-.31.17-.43.39-.43Zm-2,3.47h1c.62,0,1-.46,1.08-1.23A.75.75,0,0,0,36.55,4h-.94l-.32,2.05Zm7.3,3.35c.11-.1.23-.15.21,0l0,.3c0,.16,0,.24.19.24H44c.19,0,.28-.07.32-.36L45,5.37c0-.21,0-.32-.18-.32H43.65c-.11,0-.16.06-.19.23l0,.26c0,.13-.09.15-.14,0a1.37,1.37,0,0,0-1.44-.68,3,3,0,0,0-2.93,2.94,2,2,0,0,0,2,2.25,2.15,2.15,0,0,0,1.69-.66h0Zm-.91-.64a1.08,1.08,0,0,1-1.11-1.28,1.54,1.54,0,0,1,1.49-1.28,1.08,1.08,0,0,1,1.12,1.28,1.56,1.56,0,0,1-1.5,1.28Zm5,1.15H45.44a.15.15,0,0,1-.16-.14v0l1.1-7a.22.22,0,0,1,.21-.17h1.26a.15.15,0,0,1,.15.14v0l-1.1,7A.22.22,0,0,1,46.69,9.92Z"/>
        </g>
        <g>
          <path class="cls-2" d="M18.43,2.59a1.8,1.8,0,0,1,2,2.09c-.17,1.78-1.12,2.77-2.63,2.77H16.48c-.19,0-.28.15-.33.47L15.9,9.54c0,.24-.17.36-.35.36H14.33c-.2,0-.27-.13-.22-.4l1-6.48c.05-.31.17-.43.38-.43Zm-2,3.47h1c.63,0,1-.46,1.08-1.23A.74.74,0,0,0,17.7,4h-.94l-.32,2.05Zm7.3,3.35c.11-.1.22-.15.21,0l0,.3c0,.16,0,.24.19.24h1.08c.19,0,.27-.07.32-.36l.67-4.19c0-.21,0-.32-.18-.32H24.8c-.11,0-.16.06-.19.23l-.05.26c0,.13-.08.15-.14,0-.2-.48-.72-.7-1.44-.68a3,3,0,0,0-2.92,2.94,2,2,0,0,0,2,2.25,2.13,2.13,0,0,0,1.68-.66Zm-.91-.64a1.1,1.1,0,0,1-1.12-1.28,1.56,1.56,0,0,1,1.5-1.28,1.09,1.09,0,0,1,1.12,1.28,1.56,1.56,0,0,1-1.5,1.28ZM28.29,5h-1.1c-.23,0-.32.17-.25.38l1.38,4L27,11.32c-.11.16,0,.3.13.3h1.24a.37.37,0,0,0,.37-.18l4.2-6C33,5.23,33,5,32.77,5H31.6c-.2,0-.28.08-.4.25L29.45,7.82l-.78-2.55A.35.35,0,0,0,28.29,5Z"/>
          <path class="cls-2" d="M2.14,0H5.42A4.11,4.11,0,0,1,8.18.68a2.21,2.21,0,0,1,.68,1.86c-.2,2.51-1.7,3.91-3.71,3.91H3.53c-.27,0-.46.19-.53.68L2.54,10c0,.18-.11.29-.25.31h-2c-.22,0-.3-.17-.24-.55L1.47.55A.59.59,0,0,1,2.14,0Z"/>
        </g>
        <path class="cls-3" d="M3,6.84l.58-3.63a.5.5,0,0,1,.57-.47H7.47A3.12,3.12,0,0,1,8.79,3,3.64,3.64,0,0,1,5.13,6.45H3.51C3.3,6.45,3.14,6.56,3,6.84Z"/>
      </g>
    </g>
  </g>
</svg>
