<svg xmlns="http://www.w3.org/2000/svg" width="48" height="13.57" viewBox="0 0 48 13.57">
  <defs>
    <style>
      .cls-1 {
        fill: none;
      }

      .cls-2 {
        fill: #fcd205;
      }

      .cls-3 {
        fill: #fff;
      }

      .cls-4 {
        fill: #ed1c24;
      }

      .cls-5 {
        fill: #231f20;
      }
    </style>
  </defs>
  <title>Asset 12</title>
  <g id="Layer_2" data-name="Layer 2">
    <g id="Layer_1-2" data-name="Layer 1">
      <g>
        <rect class="cls-1" y="0.01" width="48" height="13.56"/>
        <path id="path22" class="cls-2" d="M0,13.57H48V0H0Z"/>
        <path id="path24" class="cls-3" d="M39.86,10.47l.47-2.23H2.05l-.47,2.23H39.86"/>
        <path id="path26" class="cls-4" d="M44.47,5.22S45,2.86,45,2.84H41.73S41.06,6,41.06,6h.83s.52-2.35.52-2.35H44S43.49,6,43.48,6h2.41l-.32,1.45H43.18s-.49,2.22-.49,2.22H40.88s-.16.79-.17.8h2.67l.48-2.23h2.39s.63-3,.63-3H44.47"/>
        <path id="path28" class="cls-5" d="M38.57,5.91a.57.57,0,0,1,.58.63,1.37,1.37,0,0,1,0,.19H37.65A1,1,0,0,1,38.57,5.91Zm.74,2.92L39.5,8a3.05,3.05,0,0,1-1,.2c-.47,0-.88-.16-.9-.73H40a2.83,2.83,0,0,0,.14-.83,1.37,1.37,0,0,0-1.48-1.47,2.12,2.12,0,0,0-2.09,2.25A1.54,1.54,0,0,0,38.27,9a3.34,3.34,0,0,0,1-.16Zm-4-.74a.7.7,0,0,1-.8-.8A1.17,1.17,0,0,1,35.67,6a2,2,0,0,1,.72.16l.17-.84a2.93,2.93,0,0,0-1-.17,2.09,2.09,0,0,0-2.13,2.17,1.47,1.47,0,0,0,1.63,1.6,2.15,2.15,0,0,0,.79-.14l.19-.86a2.13,2.13,0,0,1-.75.15Zm-5.07.79L30.67,7c.16-.75.53-1,.91-1s.55.36.45.78l-.44,2.08h1.05l.46-2.13c.23-1.06-.26-1.62-1-1.62a1.6,1.6,0,0,0-1.19.54l.1-.43H30l-.78,3.64ZM26.5,7.83c0-.37.32-.58.85-.58a4.26,4.26,0,0,1,.54,0l0,.21a1,1,0,0,1-.9.72c-.3,0-.45-.14-.45-.39Zm1-2.68a4.45,4.45,0,0,0-1.14.16l-.17.85A4.09,4.09,0,0,1,27.3,6c.55,0,.75.17.75.46a1,1,0,0,1,0,.17l0,.07-.63,0c-1,0-1.88.4-1.88,1.36a1,1,0,0,0,1.12,1,1.37,1.37,0,0,0,1.08-.47l-.08.39h.93L29,6.79a1.83,1.83,0,0,0,0-.47c0-.62-.34-1.17-1.55-1.17ZM22.43,8.88,22.83,7c.16-.75.53-1,.91-1s.55.36.46.78l-.45,2.08H24.8l.46-2.13c.23-1.06-.26-1.62-1-1.62A1.64,1.64,0,0,0,23,5.67l.1-.43h-1l-.78,3.64ZM20.55,4.23a.54.54,0,0,0,.54.59.62.62,0,0,0,.64-.59.54.54,0,0,0-.54-.58.62.62,0,0,0-.64.58Zm-.15,1-.78,3.64h1l.79-3.64Zm-3,3.64L17.85,7h1.59l.19-.93H18.05l.24-1.17H20l.2-.93H17.41l-1,4.93ZM16.41,6l.17-.8H15.46l.22-1-1.1.24L13.9,7.58c-.19.88.3,1.36,1.18,1.36a2.73,2.73,0,0,0,.71-.11L16,8a2.2,2.2,0,0,1-.58.09c-.3,0-.52-.1-.44-.47L15.28,6Zm-4,1.76c0,.3-.36.35-.66.35a3.54,3.54,0,0,1-1-.18l-.17.82a4.49,4.49,0,0,0,1.14.15c.94,0,1.7-.35,1.7-1.23,0-1.14-1.36-.94-1.36-1.44,0-.23.22-.31.56-.31a4.42,4.42,0,0,1,1,.17l.17-.82a3.86,3.86,0,0,0-1-.14c-1,0-1.64.45-1.64,1.21,0,1.1,1.37.92,1.37,1.42ZM8.49,9A2.14,2.14,0,0,0,10.6,7.06,1.53,1.53,0,0,0,9,5.13a2.12,2.12,0,0,0-2.1,1.93A1.52,1.52,0,0,0,8.49,9Zm.1-.85c-.42,0-.75-.33-.6-1.08S8.51,6,8.93,6s.75.34.59,1.09S9,8.14,8.59,8.14ZM4.17,7.37h.46c1.47,0,2.29-.72,2.29-1.93C6.92,4.54,6.29,4,5.19,4H3.83l-1,4.93h1Zm.18-.9L4.7,4.85h.44c.48,0,.71.2.71.66s-.37,1-1.06,1H4.35"/>
      </g>
    </g>
  </g>
</svg>
