<svg xmlns="http://www.w3.org/2000/svg" xmlns:xlink="http://www.w3.org/1999/xlink" width="48" height="20.8" viewBox="0 0 48 20.8">
  <defs>
    <style>
      .cls-1 {
        fill: #fff;
      }

      .cls-2 {
        fill: url(#radial-gradient);
      }

      .cls-3 {
        fill: url(#radial-gradient-2);
      }
    </style>
    <radialGradient id="radial-gradient" cx="-30.09" cy="-693.2" r="0.09" gradientTransform="translate(2044.48 52937.28) scale(67.64 76.36)" gradientUnits="userSpaceOnUse">
      <stop offset="0" stop-color="#fc0"/>
      <stop offset="0.09" stop-color="#ffc800"/>
      <stop offset="0.17" stop-color="#ffbd00"/>
      <stop offset="0.25" stop-color="#ffab00"/>
      <stop offset="0.33" stop-color="#ff9100"/>
      <stop offset="0.4" stop-color="#ff7000"/>
      <stop offset="0.48" stop-color="#ff4700"/>
      <stop offset="0.55" stop-color="#ff1800"/>
      <stop offset="0.58" stop-color="red"/>
      <stop offset="1" stop-color="red"/>
    </radialGradient>
    <radialGradient id="radial-gradient-2" cx="-26.15" cy="-693.21" r="0.11" gradientTransform="translate(1326.02 53000.13) scale(50.49 76.44)" gradientUnits="userSpaceOnUse">
      <stop offset="0" stop-color="#00b4e6"/>
      <stop offset="0.2" stop-color="#00b0e3"/>
      <stop offset="0.39" stop-color="#01a5db"/>
      <stop offset="0.57" stop-color="#0292cd"/>
      <stop offset="0.75" stop-color="#0377ba"/>
      <stop offset="0.93" stop-color="#0455a1"/>
      <stop offset="1" stop-color="#054696"/>
    </radialGradient>
  </defs>
  <title>Asset 10</title>
  <g id="Layer_2" data-name="Layer 2">
    <g id="Layer_1-2" data-name="Layer 1">
      <g>
        <rect width="48" height="20.8"/>
        <g>
          <path id="Shape" class="cls-1" d="M15.44,13.36a.57.57,0,0,1-.26.45L10.1,16.74a.59.59,0,0,1-.52,0L4.5,13.81a.59.59,0,0,1-.26-.45V7.49A.57.57,0,0,1,4.5,7L9.58,4.11a.59.59,0,0,1,.52,0L15.18,7a.59.59,0,0,1,.26.45ZM43.68,7.92H39.12V9H40.8v4.64h1.28V9h1.6ZM23,7.92H18.4V9h1.68v4.64h1.28V9H23Zm13.18-.17A2.08,2.08,0,0,0,33.92,10v3.69H35.2V10a.93.93,0,0,1,1-1,1,1,0,0,1,1,1v3.71H38.4V10A2.07,2.07,0,0,0,36.15,7.75Zm-4.79.17v5.76h1.28V7.92ZM27.05,10.2l0,.26,1.2,3.22h.52l1.64-5.76H29.19l-.78,3-.05.33-.06-.33-1-3h-.42l-1,3-.07.33,0-.33-.78-3H23.65l1.63,5.76h.52L27,10.46l0-.26"/>
          <path id="Shape-2" data-name="Shape" class="cls-2" d="M12.48,10.46l-1.33,2-.68-1,.79-1.18a1.56,1.56,0,0,0,.09-1.57,1.64,1.64,0,0,0-3,0,1.5,1.5,0,0,0,.09,1.55l.8,1.17.59.86.89,1.36a.5.5,0,0,0,.39.22.54.54,0,0,0,.4-.23l2.08-3.08H12.48v0Zm-2.61,0-.57-.9a.66.66,0,1,1,1.15,0C10.22,10,9.87,10.49,9.87,10.49Z"/>
          <path class="cls-3" d="M8.6,12.33,7.3,10.5S7,10,6.72,9.6a.65.65,0,0,1,.58-1l.19,0,.45-.84a1.64,1.64,0,0,0-2.12.81,1.51,1.51,0,0,0,.08,1.54l2.28,3.39a.59.59,0,0,0,.41.24.52.52,0,0,0,.4-.23l.69-1.05-.59-.87-.49.7Z"/>
        </g>
      </g>
    </g>
  </g>
</svg>
