<svg xmlns="http://www.w3.org/2000/svg" xmlns:xlink="http://www.w3.org/1999/xlink" width="48" height="15.5" viewBox="0 0 48 15.5">
  <defs>
    <style>
      .cls-1 {
        fill: url(#Unbenannter_Verlauf_3);
      }
    </style>
    <linearGradient id="Unbenannter_Verlauf_3" data-name="Unbenannter Verlauf 3" y1="7.75" x2="48" y2="7.75" gradientUnits="userSpaceOnUse">
      <stop offset="0" stop-color="#222357"/>
      <stop offset="1" stop-color="#254aa5"/>
    </linearGradient>
  </defs>
  <title>Asset 13</title>
  <g id="Layer_2" data-name="Layer 2">
    <g id="Layer_1-2" data-name="Layer 1">
      <path class="cls-1" d="M24.82,5c0,2.15,1.93,3.36,3.4,4.08s2,1.2,2,1.86c0,1-1.2,1.45-2.32,1.47a8.09,8.09,0,0,1-4-.95l-.71,3.28a11.73,11.73,0,0,0,4.32.8c4.07,0,6.74-2,6.75-5.13,0-3.95-5.47-4.17-5.44-5.94,0-.54.53-1.11,1.65-1.26a7.31,7.31,0,0,1,3.82.67L35,.67A10.44,10.44,0,0,0,31.38,0c-3.84,0-6.53,2-6.56,5M41.56.27a1.77,1.77,0,0,0-1.65,1.1l-5.82,13.9h4.07L39,13h5l.47,2.24H48L44.87.27H41.56m.57,4.05L43.3,10H40.08l2.05-5.63M19.89.27l-3.21,15h3.88l3.21-15H19.89m-5.74,0-4,10.21L8.48,1.8A1.81,1.81,0,0,0,6.69.27H.09L0,.71A16.53,16.53,0,0,1,3.83,2,1.66,1.66,0,0,1,4.75,3.3l3.09,12h4.1l6.28-15H14.15"/>
    </g>
  </g>
</svg>
